<svg width="12" height="12" viewBox="0 0 12 12" fill="none" xmlns="http://www.w3.org/2000/svg">
<path d="M4.8882 3.04924C5.30812 2.07054 5.51808 1.5812 5.85919 1.51337C5.94889 1.49554 6.04159 1.49554 6.13128 1.51337C6.4724 1.5812 6.68236 2.07054 7.10228 3.04924C7.34108 3.6058 7.46048 3.88408 7.6839 4.07336C7.74656 4.12645 7.81459 4.17373 7.88702 4.21454C8.14525 4.36005 8.4676 4.38703 9.11231 4.44101C10.2037 4.53239 10.7494 4.57808 10.916 4.86896C10.9505 4.9292 10.974 4.99443 10.9854 5.06193C11.0407 5.38783 10.6395 5.72904 9.8372 6.41146L9.6144 6.60096C9.2393 6.92001 9.05174 7.07953 8.94326 7.27861C8.87819 7.39803 8.83455 7.52664 8.81411 7.6593C8.78003 7.88044 8.83495 8.11186 8.94479 8.57469L8.98404 8.74006C9.18102 9.57008 9.27951 9.98509 9.15656 10.1891C9.04613 10.3723 8.8427 10.4896 8.61798 10.4997C8.36781 10.5108 8.01531 10.2423 7.31031 9.70523C6.84582 9.35139 6.61358 9.17447 6.35577 9.10536C6.12016 9.0422 5.87031 9.0422 5.63471 9.10536C5.37689 9.17447 5.14465 9.35139 4.68017 9.70523C3.97517 10.2423 3.62266 10.5108 3.37249 10.4997C3.14778 10.4896 2.94435 10.3723 2.83391 10.1891C2.71096 9.98509 2.80945 9.57008 3.00644 8.74006L3.04568 8.57469C3.15553 8.11186 3.21045 7.88044 3.17637 7.6593C3.15592 7.52664 3.11229 7.39803 3.04721 7.27861C2.93873 7.07953 2.75118 6.92001 2.37608 6.60096L2.15327 6.41146C1.35095 5.72904 0.949782 5.38783 1.00503 5.06193C1.01647 4.99443 1.03993 4.9292 1.07445 4.86896C1.24109 4.57808 1.78678 4.53239 2.87816 4.44101C3.52287 4.38703 3.84523 4.36005 4.10346 4.21454C4.17589 4.17373 4.24391 4.12645 4.30658 4.07336C4.52999 3.88408 4.64939 3.6058 4.8882 3.04924Z" fill="#FBB0AB" stroke="#FBB0AB" stroke-width="2"/>
</svg>
